<?xml version="1.0" standalone="no"?>
<!DOCTYPE svg PUBLIC "-//W3C//DTD SVG 20010904//EN"
 "http://www.w3.org/TR/2001/REC-SVG-20010904/DTD/svg10.dtd">
<svg version="1.0" xmlns="http://www.w3.org/2000/svg"
 width="500.000000pt" height="500.000000pt" viewBox="0 0 500.000000 500.000000"
 preserveAspectRatio="xMidYMid meet">
<metadata>
Created by potrace 1.14, written by Peter Selinger 2001-2017
</metadata>
<g transform="translate(0.000000,500.000000) scale(0.100000,-0.100000)"
fill="#000000" stroke="none">
<path d="M0 2500 l0 -2500 2500 0 2500 0 0 2500 0 2500 -2500 0 -2500 0 0
-2500z m3774 928 c3 -13 7 -157 11 -320 l5 -298 -44 0 -45 0 -6 58 c-11 95
-43 213 -78 281 -88 173 -227 231 -526 217 -79 -3 -147 -9 -152 -12 -5 -3 -9
-25 -9 -50 l0 -44 -184 0 -184 0 -15 -42 -15 -43 -1 97 -1 96 -107 7 c-60 3
-115 7 -123 8 -9 1 -16 15 -18 35 l-3 32 745 0 746 0 4 -22z m-844 -644 l0
-407 108 6 c205 11 282 66 311 222 6 32 11 80 11 107 l0 48 45 0 45 0 0 -426
0 -425 -42 3 -43 3 -6 72 c-14 155 -51 233 -129 273 -49 25 -174 42 -246 34
l-54 -7 0 -409 c0 -370 -2 -410 -16 -404 -9 3 -18 6 -20 6 -7 0 -4 1696 3
1703 3 4 12 7 20 7 11 0 13 -74 13 -406z m-368 -516 c-4 -649 -7 -788 -18
-792 -12 -5 -14 119 -14 753 0 664 2 763 16 796 8 20 17 36 18 34 2 -2 1 -358
-2 -791z m368 -918 l0 -60 58 0 c31 0 101 -3 155 -7 l97 -6 0 -34 0 -33 -480
0 -480 0 0 34 0 34 123 8 122 9 3 58 3 57 199 0 200 0 0 -60z m1570 -345 l0
-25 -2000 0 -2000 0 0 25 0 25 2000 0 2000 0 0 -25z"/>
</g>
</svg>
